<svg width="20" height="24" viewBox="0 0 20 24" fill="none" xmlns="http://www.w3.org/2000/svg">
<path d="M4.81274 0.150391C5.16882 -0.205087 5.73149 -0.22784 6.11353 0.0830078L6.18774 0.150391L6.19458 0.157227L6.60962 0.647461C8.55654 3.02641 9.87795 5.8547 10.4583 8.87598C12.0625 6.11954 14.4013 3.85887 17.218 2.35156L17.2219 2.34961C17.4483 2.23842 17.711 2.22484 17.9475 2.3125C18.1544 2.38919 18.3258 2.53743 18.4319 2.72852L18.4729 2.81348L18.4758 2.81934C19.9962 6.86724 19.9708 11.3332 18.4065 15.3643C16.7341 19.826 15.3355 21.8353 14.0696 23.0537H19.0999C19.4035 23.0537 19.6495 23.2999 19.6497 23.6035C19.6497 23.9073 19.4036 24.1543 19.0999 24.1543H0.700439C0.396683 24.1543 0.149658 23.9073 0.149658 23.6035C0.149836 23.2999 0.396793 23.0537 0.700439 23.0537H2.08423C1.06788 21.3417 0.149658 18.8879 0.149658 12.8037C0.149665 12.625 0.162961 12.433 0.16626 12.2705V12.2686C0.195001 11.3354 0.283878 10.4051 0.431885 9.4834L0.546143 8.83789C1.17267 5.62247 2.6408 2.62601 4.80591 0.157227L4.81177 0.149414L4.81274 0.150391ZM1.73657 18.9326C1.96026 20.2107 2.41117 21.4389 3.06958 22.5576L3.0813 22.5781C3.2744 22.8747 3.60406 23.0546 3.95923 23.0537H7.04028C7.40357 23.0544 7.74106 22.8666 7.93188 22.5576C8.59016 21.4392 9.04019 20.2114 9.26392 18.9336L5.49927 16.2773L1.73657 18.9326ZM10.6565 23.0547C11.3429 23.0572 11.7501 23.0699 12.0354 23.0518C12.1884 23.042 12.295 23.0233 12.3831 22.9932C12.4694 22.9636 12.5451 22.92 12.6321 22.8516C13.8815 21.8604 15.4385 20.151 17.3772 14.9785V14.9775C18.6978 11.5479 18.8487 7.7829 17.8147 4.26465L10.6565 23.0547ZM16.7922 3.86035C14.1732 5.52202 12.0716 7.88756 10.7307 10.6904C10.7981 11.3402 10.8498 12.2978 10.8499 12.8037C10.8499 18.8882 9.93169 21.3417 8.91528 23.0537H9.48169L16.7922 3.86035ZM1.42212 16.7549C1.45558 17.0969 1.4941 17.4192 1.5354 17.7256L4.95044 15.3213L5.07837 15.2451C5.38821 15.0911 5.76253 15.1164 6.05103 15.3213L9.46216 17.7275C9.50422 17.4212 9.5439 17.0988 9.57739 16.7559L5.49927 13.8779L1.42212 16.7549ZM1.26196 12.4688C1.24088 13.569 1.27117 14.5874 1.32349 15.4766L4.95044 12.9209C5.27959 12.6871 5.72071 12.6875 6.05005 12.9209L9.67407 15.4766C9.72657 14.5851 9.75634 13.5591 9.7356 12.4688L5.49927 9.47754L1.26196 12.4688ZM1.47974 9.91406C1.42046 10.2913 1.36955 10.6762 1.33228 11.0742L4.94849 8.51953L5.07642 8.44336C5.38622 8.28943 5.76061 8.31465 6.04907 8.51953L9.66528 11.0732C9.62871 10.6763 9.57978 10.2916 9.52075 9.91504L5.49927 7.07812L1.47974 9.91406ZM5.49927 1.03516C3.68826 3.14174 2.41435 5.65339 1.78247 8.35645L4.95044 6.12109C5.27979 5.88706 5.72158 5.88726 6.05103 6.12109L9.21899 8.35254C8.58702 5.65009 7.31122 3.14021 5.49927 1.03516Z" fill="#27C7FF" stroke="#27C7FF" stroke-width="0.3"/>
</svg>
